<svg width="54" height="115" viewBox="0 0 54 115" fill="none" xmlns="http://www.w3.org/2000/svg">
<g opacity="0.3">
<mask id="mask0_3_2038" style="mask-type:alpha" maskUnits="userSpaceOnUse" x="12" y="0" width="12" height="11">
<path d="M18.0717 10.425C20.9592 10.425 23.3 8.09121 23.3 5.21245C23.3 2.33368 20.9592 0 18.0717 0C15.1841 0 12.8433 2.33368 12.8433 5.21245C12.8433 8.09121 15.1841 10.425 18.0717 10.425Z" fill="url(#paint0_linear_3_2038)"/>
</mask>
<g mask="url(#mask0_3_2038)">
<path d="M18.0717 10.425C20.9592 10.425 23.3 8.09121 23.3 5.21245C23.3 2.33368 20.9592 0 18.0717 0C15.1841 0 12.8433 2.33368 12.8433 5.21245C12.8433 8.09121 15.1841 10.425 18.0717 10.425Z" fill="url(#paint1_linear_3_2038)"/>
</g>
<mask id="mask1_3_2038" style="mask-type:alpha" maskUnits="userSpaceOnUse" x="43" y="0" width="11" height="11">
<path d="M48.3526 10.425C51.2402 10.425 53.581 8.09121 53.581 5.21245C53.581 2.33368 51.2402 0 48.3526 0C45.4651 0 43.1243 2.33368 43.1243 5.21245C43.1243 8.09121 45.4651 10.425 48.3526 10.425Z" fill="url(#paint2_linear_3_2038)"/>
</mask>
<g mask="url(#mask1_3_2038)">
<path d="M48.3526 10.425C51.2402 10.425 53.581 8.09121 53.581 5.21245C53.581 2.33368 51.2402 0 48.3526 0C45.4651 0 43.1243 2.33368 43.1243 5.21245C43.1243 8.09121 45.4651 10.425 48.3526 10.425Z" fill="url(#paint3_linear_3_2038)"/>
</g>
<mask id="mask2_3_2038" style="mask-type:alpha" maskUnits="userSpaceOnUse" x="12" y="26" width="12" height="11">
<path d="M18.0717 36.5958C20.9592 36.5958 23.3 34.2621 23.3 31.3833C23.3 28.5046 20.9592 26.1709 18.0717 26.1709C15.1841 26.1709 12.8433 28.5046 12.8433 31.3833C12.8433 34.2621 15.1841 36.5958 18.0717 36.5958Z" fill="url(#paint4_linear_3_2038)"/>
</mask>
<g mask="url(#mask2_3_2038)">
<path d="M18.0717 36.5958C20.9592 36.5958 23.3 34.2621 23.3 31.3833C23.3 28.5046 20.9592 26.1709 18.0717 26.1709C15.1841 26.1709 12.8433 28.5046 12.8433 31.3833C12.8433 34.2621 15.1841 36.5958 18.0717 36.5958Z" fill="url(#paint5_linear_3_2038)"/>
</g>
<mask id="mask3_3_2038" style="mask-type:alpha" maskUnits="userSpaceOnUse" x="43" y="26" width="11" height="11">
<path d="M48.3526 36.5958C51.2402 36.5958 53.581 34.2621 53.581 31.3833C53.581 28.5046 51.2402 26.1709 48.3526 26.1709C45.4651 26.1709 43.1243 28.5046 43.1243 31.3833C43.1243 34.2621 45.4651 36.5958 48.3526 36.5958Z" fill="url(#paint6_linear_3_2038)"/>
</mask>
<g mask="url(#mask3_3_2038)">
<path d="M48.3526 36.5958C51.2402 36.5958 53.581 34.2621 53.581 31.3833C53.581 28.5046 51.2402 26.1709 48.3526 26.1709C45.4651 26.1709 43.1243 28.5046 43.1243 31.3833C43.1243 34.2621 45.4651 36.5958 48.3526 36.5958Z" fill="url(#paint7_linear_3_2038)"/>
</g>
<mask id="mask4_3_2038" style="mask-type:alpha" maskUnits="userSpaceOnUse" x="12" y="52" width="12" height="11">
<path d="M18.0717 62.7126C20.9592 62.7126 23.3 60.3789 23.3 57.5001C23.3 54.6213 20.9592 52.2876 18.0717 52.2876C15.1841 52.2876 12.8433 54.6213 12.8433 57.5001C12.8433 60.3789 15.1841 62.7126 18.0717 62.7126Z" fill="url(#paint8_linear_3_2038)"/>
</mask>
<g mask="url(#mask4_3_2038)">
<path d="M18.0717 62.7126C20.9592 62.7126 23.3 60.3789 23.3 57.5001C23.3 54.6213 20.9592 52.2876 18.0717 52.2876C15.1841 52.2876 12.8433 54.6213 12.8433 57.5001C12.8433 60.3789 15.1841 62.7126 18.0717 62.7126Z" fill="url(#paint9_linear_3_2038)"/>
</g>
<mask id="mask5_3_2038" style="mask-type:alpha" maskUnits="userSpaceOnUse" x="43" y="52" width="11" height="11">
<path d="M48.3526 62.7126C51.2402 62.7126 53.581 60.3789 53.581 57.5001C53.581 54.6213 51.2402 52.2876 48.3526 52.2876C45.4651 52.2876 43.1243 54.6213 43.1243 57.5001C43.1243 60.3789 45.4651 62.7126 48.3526 62.7126Z" fill="url(#paint10_linear_3_2038)"/>
</mask>
<g mask="url(#mask5_3_2038)">
<path d="M48.3526 62.7126C51.2402 62.7126 53.581 60.3789 53.581 57.5001C53.581 54.6213 51.2402 52.2876 48.3526 52.2876C45.4651 52.2876 43.1243 54.6213 43.1243 57.5001C43.1243 60.3789 45.4651 62.7126 48.3526 62.7126Z" fill="url(#paint11_linear_3_2038)"/>
</g>
<mask id="mask6_3_2038" style="mask-type:alpha" maskUnits="userSpaceOnUse" x="12" y="78" width="12" height="11">
<path d="M18.0717 88.8835C20.9592 88.8835 23.3 86.5497 23.3 83.6709C23.3 80.7922 20.9592 78.4585 18.0717 78.4585C15.1841 78.4585 12.8433 80.7922 12.8433 83.6709C12.8433 86.5497 15.1841 88.8835 18.0717 88.8835Z" fill="url(#paint12_linear_3_2038)"/>
</mask>
<g mask="url(#mask6_3_2038)">
<path d="M18.0717 88.8835C20.9592 88.8835 23.3 86.5497 23.3 83.6709C23.3 80.7922 20.9592 78.4585 18.0717 78.4585C15.1841 78.4585 12.8433 80.7922 12.8433 83.6709C12.8433 86.5497 15.1841 88.8835 18.0717 88.8835Z" fill="url(#paint13_linear_3_2038)"/>
</g>
<mask id="mask7_3_2038" style="mask-type:alpha" maskUnits="userSpaceOnUse" x="43" y="78" width="11" height="11">
<path d="M48.3526 88.8835C51.2402 88.8835 53.581 86.5497 53.581 83.6709C53.581 80.7922 51.2402 78.4585 48.3526 78.4585C45.4651 78.4585 43.1243 80.7922 43.1243 83.6709C43.1243 86.5497 45.4651 88.8835 48.3526 88.8835Z" fill="url(#paint14_linear_3_2038)"/>
</mask>
<g mask="url(#mask7_3_2038)">
<path d="M48.3526 88.8835C51.2402 88.8835 53.581 86.5497 53.581 83.6709C53.581 80.7922 51.2402 78.4585 48.3526 78.4585C45.4651 78.4585 43.1243 80.7922 43.1243 83.6709C43.1243 86.5497 45.4651 88.8835 48.3526 88.8835Z" fill="url(#paint15_linear_3_2038)"/>
</g>
<mask id="mask8_3_2038" style="mask-type:alpha" maskUnits="userSpaceOnUse" x="12" y="104" width="12" height="11">
<path d="M18.0717 115C20.9592 115 23.3 112.666 23.3 109.787C23.3 106.909 20.9592 104.575 18.0717 104.575C15.1841 104.575 12.8433 106.909 12.8433 109.787C12.8433 112.666 15.1841 115 18.0717 115Z" fill="url(#paint16_linear_3_2038)"/>
</mask>
<g mask="url(#mask8_3_2038)">
<path d="M18.0717 115C20.9592 115 23.3 112.666 23.3 109.787C23.3 106.909 20.9592 104.575 18.0717 104.575C15.1841 104.575 12.8433 106.909 12.8433 109.787C12.8433 112.666 15.1841 115 18.0717 115Z" fill="url(#paint17_linear_3_2038)"/>
</g>
<mask id="mask9_3_2038" style="mask-type:alpha" maskUnits="userSpaceOnUse" x="43" y="104" width="11" height="11">
<path d="M48.3526 115C51.2402 115 53.581 112.666 53.581 109.787C53.581 106.909 51.2402 104.575 48.3526 104.575C45.4651 104.575 43.1243 106.909 43.1243 109.787C43.1243 112.666 45.4651 115 48.3526 115Z" fill="url(#paint18_linear_3_2038)"/>
</mask>
<g mask="url(#mask9_3_2038)">
<path d="M48.3526 115C51.2402 115 53.581 112.666 53.581 109.787C53.581 106.909 51.2402 104.575 48.3526 104.575C45.4651 104.575 43.1243 106.909 43.1243 109.787C43.1243 112.666 45.4651 115 48.3526 115Z" fill="url(#paint19_linear_3_2038)"/>
</g>
</g>
<defs>
<linearGradient id="paint0_linear_3_2038" x1="55.6092" y1="100.259" x2="-15.7924" y2="-81.5444" gradientUnits="userSpaceOnUse">
<stop/>
<stop offset="1" stop-color="white"/>
</linearGradient>
<linearGradient id="paint1_linear_3_2038" x1="55.6092" y1="100.259" x2="-15.7924" y2="-81.5444" gradientUnits="userSpaceOnUse">
<stop stop-color="#97C3F9"/>
<stop offset="1" stop-color="#93C1F9"/>
</linearGradient>
<linearGradient id="paint2_linear_3_2038" x1="81.8135" y1="89.9679" x2="10.4119" y2="-91.8359" gradientUnits="userSpaceOnUse">
<stop/>
<stop offset="1" stop-color="white"/>
</linearGradient>
<linearGradient id="paint3_linear_3_2038" x1="81.8135" y1="89.9679" x2="10.4119" y2="-91.8359" gradientUnits="userSpaceOnUse">
<stop stop-color="#97C3F9"/>
<stop offset="1" stop-color="#93C1F9"/>
</linearGradient>
<linearGradient id="paint4_linear_3_2038" x1="46.6668" y1="103.771" x2="-24.7336" y2="-78.0318" gradientUnits="userSpaceOnUse">
<stop/>
<stop offset="1" stop-color="white"/>
</linearGradient>
<linearGradient id="paint5_linear_3_2038" x1="46.6668" y1="103.771" x2="-24.7336" y2="-78.0318" gradientUnits="userSpaceOnUse">
<stop stop-color="#97C3F9"/>
<stop offset="1" stop-color="#93C1F9"/>
</linearGradient>
<linearGradient id="paint6_linear_3_2038" x1="72.8711" y1="93.4793" x2="1.47073" y2="-88.3232" gradientUnits="userSpaceOnUse">
<stop/>
<stop offset="1" stop-color="white"/>
</linearGradient>
<linearGradient id="paint7_linear_3_2038" x1="72.8711" y1="93.4793" x2="1.47073" y2="-88.3232" gradientUnits="userSpaceOnUse">
<stop stop-color="#97C3F9"/>
<stop offset="1" stop-color="#93C1F9"/>
</linearGradient>
<linearGradient id="paint8_linear_3_2038" x1="37.7244" y1="107.283" x2="-33.6772" y2="-74.5204" gradientUnits="userSpaceOnUse">
<stop/>
<stop offset="1" stop-color="white"/>
</linearGradient>
<linearGradient id="paint9_linear_3_2038" x1="37.7244" y1="107.283" x2="-33.6772" y2="-74.5204" gradientUnits="userSpaceOnUse">
<stop stop-color="#97C3F9"/>
<stop offset="1" stop-color="#93C1F9"/>
</linearGradient>
<linearGradient id="paint10_linear_3_2038" x1="63.9287" y1="96.992" x2="-7.47294" y2="-84.8119" gradientUnits="userSpaceOnUse">
<stop/>
<stop offset="1" stop-color="white"/>
</linearGradient>
<linearGradient id="paint11_linear_3_2038" x1="63.9287" y1="96.992" x2="-7.47294" y2="-84.8119" gradientUnits="userSpaceOnUse">
<stop stop-color="#97C3F9"/>
<stop offset="1" stop-color="#93C1F9"/>
</linearGradient>
<linearGradient id="paint12_linear_3_2038" x1="28.7821" y1="110.796" x2="-42.6196" y2="-71.0083" gradientUnits="userSpaceOnUse">
<stop/>
<stop offset="1" stop-color="white"/>
</linearGradient>
<linearGradient id="paint13_linear_3_2038" x1="28.7821" y1="110.796" x2="-42.6196" y2="-71.0083" gradientUnits="userSpaceOnUse">
<stop stop-color="#97C3F9"/>
<stop offset="1" stop-color="#93C1F9"/>
</linearGradient>
<linearGradient id="paint14_linear_3_2038" x1="54.9863" y1="100.504" x2="-16.4153" y2="-81.2999" gradientUnits="userSpaceOnUse">
<stop/>
<stop offset="1" stop-color="white"/>
</linearGradient>
<linearGradient id="paint15_linear_3_2038" x1="54.9863" y1="100.504" x2="-16.4153" y2="-81.2999" gradientUnits="userSpaceOnUse">
<stop stop-color="#97C3F9"/>
<stop offset="1" stop-color="#93C1F9"/>
</linearGradient>
<linearGradient id="paint16_linear_3_2038" x1="19.8397" y1="114.307" x2="-51.5619" y2="-67.4964" gradientUnits="userSpaceOnUse">
<stop/>
<stop offset="1" stop-color="white"/>
</linearGradient>
<linearGradient id="paint17_linear_3_2038" x1="19.8397" y1="114.307" x2="-51.5619" y2="-67.4964" gradientUnits="userSpaceOnUse">
<stop stop-color="#97C3F9"/>
<stop offset="1" stop-color="#93C1F9"/>
</linearGradient>
<linearGradient id="paint18_linear_3_2038" x1="46.044" y1="104.016" x2="-25.3576" y2="-77.7879" gradientUnits="userSpaceOnUse">
<stop/>
<stop offset="1" stop-color="white"/>
</linearGradient>
<linearGradient id="paint19_linear_3_2038" x1="46.044" y1="104.016" x2="-25.3576" y2="-77.7879" gradientUnits="userSpaceOnUse">
<stop stop-color="#97C3F9"/>
<stop offset="1" stop-color="#93C1F9"/>
</linearGradient>
</defs>
</svg>
