<svg width="84" height="49" viewBox="0 0 84 49" fill="none" xmlns="http://www.w3.org/2000/svg">
<path d="M34.3778 23.7563C34.3593 16.5384 32.6098 14.8124 24.78 14.3919C21.1539 14.1979 18.5736 12.6221 17.4897 9.03629C16.5861 6.04309 17.5105 3.49118 19.862 1.61393C22.358 -0.376532 25.1994 -0.509384 27.9623 1.12411C30.1971 2.44339 31.2994 4.45927 31.341 7.11514C31.3907 10.3775 31.2255 14.0858 34.855 15.5402C39.4413 17.3794 44.4043 17.6474 48.8288 15.1163C51.7708 13.4331 51.4518 9.97434 51.6413 6.9615C51.8921 3.06375 54.5671 0.336246 58.2394 0.0867158C61.8851 -0.160504 65.0374 2.31054 65.7584 5.98648C66.58 10.1453 63.5363 13.9125 58.9293 14.4278C49.5845 15.4744 47.1591 18.7379 48.9571 27.8481C49.7821 32.0312 51.6945 33.7039 55.9884 34.3578C58.4324 34.7298 60.8047 34.4271 63.1423 33.9385C65.8428 33.3747 67.6338 31.5887 68.2058 28.8797C68.6253 26.8881 68.6842 24.8237 68.9615 22.7997C69.4492 19.2312 72.3126 16.7371 75.8947 16.7082C79.2873 16.6805 82.1634 18.9944 82.8949 22.3388C83.6541 25.8172 81.8295 29.1835 78.5247 30.497C77.0225 31.0943 75.4591 31.0377 73.9026 31.152C68.9558 31.5159 66.5546 33.9061 66.0669 38.8713C65.9029 40.5406 65.9029 42.2688 65.4395 43.8573C64.4481 47.2641 61.6332 48.9114 57.8939 48.5683C54.633 48.2679 52.1475 45.8327 51.7373 42.5045C51.6645 41.9096 51.7107 41.3007 51.6783 40.7C51.2958 33.5076 48.7051 31.0354 41.5443 31.0169C34.2264 30.9984 31.7027 33.4556 31.3191 40.9738C31.0972 45.3071 29.008 48.0542 25.568 48.5302C21.1216 49.1459 17.7567 46.6009 17.165 42.129C17.0391 41.1783 17.0888 40.2044 17.016 39.241C16.6092 33.8414 14.2011 31.4524 8.86719 31.0446C7.43781 30.936 5.9518 30.8632 4.61254 30.4127C1.25458 29.2817 -0.587332 25.7687 0.168382 22.3319C0.895209 19.0325 3.87762 16.6874 7.2275 16.781C10.7773 16.8803 13.5667 19.4576 13.9839 23.0527C14.0994 24.0081 14.0879 24.9773 14.215 25.9316C15.0238 32.1814 17.0761 34.1337 23.2004 34.5045C31.3145 35.0036 34.3997 32.03 34.3778 23.7563Z" fill="url(#paint0_linear_3_2021)"/>
<defs>
<linearGradient id="paint0_linear_3_2021" x1="4.51085" y1="-5.25854" x2="86.5322" y2="60.5235" gradientUnits="userSpaceOnUse">
<stop stop-color="#00A651"/>
<stop offset="0.29" stop-color="#0A895B"/>
<stop offset="0.91" stop-color="#253E76"/>
<stop offset="1" stop-color="#29327A"/>
</linearGradient>
</defs>
</svg>
